PathFileType	4	(X/Y/Z)	Patient4_TMGait_0pt2_03_right_01.trc.trc
DataRate	CameraRate	NumFrames	NumMarkers	Units	OrigDataRate	OrigDataStartFrame	OrigNumFrames
44.444444444444	44.444444444444	4	33	mm	44.444444444444	1	       141
Frame#	Time	Sacral			L.Shoulder			Chest			R.Shoulder			Neck			R.ASIS			L.ASIS			R.Thigh.Superior			R.Thigh.Lateral			R.Thigh.Inferior			R.Patella			L.Thigh.Superior			L.Thigh.Lateral			L.Thigh.Inferior			L.Patella			L.Shank.Superior			L.Shank.Lateral			L.Shank.Inferior			R.Shank.Superior			R.Shank.Lateral			R.Shank.Inferior			R.Heel			R.Midfoot.Superior			R.Midfoot.Lateral			R.Toe			L.Heel			L.Midfoot.Lateral			L.Midfoot.Superior			L.Toe			L.Elbow			L.Wrist			R.Elbow			R.Wrist			
		X1	Y1	Z1	X2	Y2	Z2	X3	Y3	Z3	X4	Y4	Z4	X5	Y5	Z5	X6	Y6	Z6	X7	Y7	Z7	X8	Y8	Z8	X9	Y9	Z9	X10	Y10	Z10	X11	Y11	Z11	X12	Y12	Z12	X13	Y13	Z13	X14	Y14	Z14	X15	Y15	Z15	X16	Y16	Z16	X17	Y17	Z17	X18	Y18	Z18	X19	Y19	Z19	X20	Y20	Z20	X21	Y21	Z21	X22	Y22	Z22	X23	Y23	Z23	X24	Y24	Z24	X25	Y25	Z25	X26	Y26	Z26	X27	Y27	Z27	X28	Y28	Z28	X29	Y29	Z29	X30	Y30	Z30	X31	Y31	Z31	X32	Y32	Z32	X33	Y33	Z33	

1	1.850000000000	756.538067033864	983.636934620552	375.503377863274	958.155010133620	1410.513994022814	192.552526951318	1044.604846183222	1341.381786338420	362.590679434976	951.990769315373	1420.062505516466	528.433194522413	927.755650630801	1476.436627466461	348.965617868730	979.622462460264	933.846899857988	508.656977857765	985.286198657577	938.020747500717	233.496088523677	1058.606656040930	752.339393998780	496.021491391738	1006.485025725581	639.535757993407	577.083078391916	1097.055980468799	590.147272021371	506.246700204627	1109.373616392667	481.105640106783	538.588646601306	1056.081387978093	744.136117248308	278.369374635544	992.495854540276	610.055703657513	224.611407288167	1087.133612920756	551.960153489632	297.250452099388	1097.271026823693	476.925873142940	308.963220804198	1058.609528652791	399.537240989887	306.068405087949	956.052878757289	295.226857922083	253.853469206337	984.137712422695	182.779075165524	333.781299363023	1035.277102467435	407.146258752650	550.149662863683	917.748589095648	369.518272195419	619.936433634764	902.763797176000	257.099293845507	576.739511591290	700.121500904104	187.149130507586	565.333500159448	874.568688976027	139.522499020765	598.413614234811	767.201381473793	133.492050161238	637.209207096273	948.376700283321	33.716842928318	622.944494214503	836.959351528983	39.116114573593	375.034965714566	912.395788643111	35.517604499207	296.023642770265	995.855947977872	94.853462175959	325.394170162979	1124.538547929263	42.454774990329	298.886705446519	1014.590400466735	1066.371788898069	62.889867071932	1134.756960456006	832.673811910915	78.574544964389	965.168402643702	1063.889679685406	648.470678169909	1115.753288820641	849.266883497542	663.951046821428	
2	1.872500000000	754.906561442085	982.543962751453	369.765679114811	960.718587988863	1410.251742690225	192.193191596815	1042.447357618827	1340.819472712564	364.127499889100	945.165270238624	1418.413041831373	527.591439506604	926.154911622450	1475.709808436723	347.911719555051	976.101781043123	933.315169398891	506.934075762478	986.291923919422	937.448334424917	231.859420125022	1058.089744638947	754.700345168565	494.559305843572	1007.497080935946	641.088104130668	575.485815040056	1099.683408029888	593.388540767823	505.439197104977	1113.980434129114	484.589243209925	538.087004892513	1055.941671447873	742.977494563087	277.440533963585	992.663885857584	608.917930109855	223.278819689144	1086.085060418805	550.831837434485	297.345261886268	1095.916089896848	475.796179101315	309.401261356273	1056.647451032063	398.389527651095	306.213633083829	953.895859026747	294.549793963164	253.407771882035	980.619085158132	182.232046624453	333.869405749203	1040.738417814854	409.419353505024	549.038728650885	923.087830278097	369.854752958089	617.552452442541	910.362863154789	257.161301956049	574.454757639230	708.890873673199	183.689015899909	561.138832877028	884.040350979417	139.504513166251	596.244606876745	776.308087724797	131.233799105201	633.685734920718	959.347774188534	34.670852333904	621.261420086534	832.407002671323	39.095098946063	374.928670360972	907.947241391095	35.469552183887	295.922907939496	991.453071542171	94.782934814065	325.414557846478	1120.115280325414	42.351790416526	298.927014053577	1027.791674686748	1068.813000067085	62.832626389567	1161.147226358010	844.117678308506	82.540212869994	934.226337295495	1065.019437732514	646.947618357266	1058.911633365453	839.824194267731	665.158103881914	
3	1.895000000000	753.258515280553	981.897248140062	363.920717845629	963.378454294002	1410.370980434512	191.974198465580	1040.183344502233	1340.696827890699	365.853798301844	938.063809873534	1417.292423012538	526.716889834667	924.476838487052	1475.381956170382	346.881180058746	972.332376766880	933.152408758489	505.367421962766	987.289909129504	937.281982204939	230.466311172786	1057.218896159683	757.383261326667	493.178442653090	1008.093206572732	642.919715238870	573.869533049071	1101.816724788794	596.877452102949	504.602075860800	1118.140229030131	488.481112181044	537.529768410837	1055.480355215809	741.967424705531	276.672467125876	992.304146743454	608.047648740716	221.986696371156	1084.308153174638	549.815155134776	297.512028512395	1093.712374876316	474.860384801450	309.910729435395	1053.944079669014	397.465161036229	306.373050964817	951.198645958771	293.947511535664	252.926363237867	976.713482979588	181.798593643233	333.947113495994	1046.066850552754	411.942640364722	547.926800819733	928.597510779548	369.956629744636	615.269956363748	918.639684897953	256.983260767057	572.311310625556	718.827230112516	179.085151067139	557.250673576173	894.750157759756	139.171643570546	594.198555906065	786.835879006166	128.171063946935	630.403551639154	972.010161870605	35.763917478345	619.623109596490	827.654450295405	39.064109742612	374.811281910894	903.296873545100	35.410548469840	295.810653426057	986.838473387567	94.725380214216	325.415644736589	1115.487867863597	42.283836901531	298.971238111458	1041.251557658466	1071.826934509743	62.932615044408	1188.259473042552	857.014219625604	86.804098243909	902.305782184899	1067.452748493433	644.966789300058	1000.625808594076	832.305758983180	665.576549748122	
4	1.917500000000	751.646041580691	981.890545778349	358.179265188879	966.073872464139	1411.003984789912	191.971127913599	1037.854755056607	1341.173954376409	367.784394058596	930.866267834471	1416.951273661777	525.835729421476	922.759444156081	1475.610857363972	345.932344091805	968.362765250189	933.500158939290	504.085824528541	988.222424009441	937.669567692041	229.471790956106	1055.854941121252	760.362421489358	491.982506223194	1008.028800981672	645.044972017703	572.323470884421	1103.105674018660	600.522771197602	503.785727010219	1121.428750283313	492.756235875877	536.937976329845	1054.554629115233	741.193469263550	276.150469386124	991.190072135570	607.582528297385	220.788378955515	1081.561081133064	548.990745243307	297.748408262037	1090.386576658453	474.225614072979	310.468241705665	1050.296257831753	396.886681993088	306.521707355685	947.828746855639	293.470406725028	252.406191627834	972.405275811378	181.540818576976	333.999131998035	1050.950251934906	414.709315557972	546.893702089087	934.131428813302	369.719793721089	613.273716992021	927.559410932766	256.502207214942	570.500997250960	730.101864697900	173.092998322376	554.018705271910	906.828965566562	138.467256647408	592.474133714491	799.019697808564	124.157566271768	627.656473951988	986.585009068564	37.092705155504	618.182259791323	822.799152035453	39.021382667576	374.684917697812	898.536465823389	35.339314086947	295.688249200716	982.098500875985	94.687630645409	325.389959235471	1110.745839020631	42.266555679083	299.018677775090	1054.558897247635	1075.530472506817	63.258604505798	1215.286215785184	871.501871494143	91.327673817264	870.340706671083	1071.601567567279	642.381418599261	942.751651715592	827.747851402372	664.828098866128	
